<?xml version="1.0" encoding="utf-8"?>
<!-- Generator: Adobe Illustrator 26.0.1, SVG Export Plug-In . SVG Version: 6.00 Build 0)  -->
<svg version="1.1" id="Layer_1" xmlns="http://www.w3.org/2000/svg" xmlns:xlink="http://www.w3.org/1999/xlink" x="0px" y="0px"
	 viewBox="0 0 31.9 31.9" style="enable-background:new 0 0 31.9 31.9;" xml:space="preserve">
<style type="text/css">
	.st0{fill:#EE3F24;}
</style>
<path class="st0" d="M31.5,20.5c-0.9-1-2.9-1.6-5.6-1.6c-1.5,0-3.2,0.1-5,0.5c-1-1-2.1-2.2-3.1-3.6c-0.7-1-1.3-2-1.9-3.1
	c1.1-3.4,1.6-6.1,1.6-8.1c0-2.2-0.8-4.6-3.1-4.6c-0.7,0-1.4,0.4-1.8,1.1c-1,1.9-0.6,6,1.2,10.1c-0.7,2-1.4,4-2.3,6.1
	c-0.8,1.8-1.7,3.7-2.6,5.5c-5.2,2.1-8.6,4.6-8.9,6.5c-0.1,0.7,0.1,1.4,0.6,1.9c0.2,0.1,0.8,0.7,2,0.7c3.5,0,7.1-5.7,8.9-9.1
	c1.4-0.5,2.8-0.9,4.3-1.4c1.6-0.4,3.1-0.8,4.5-1c3.6,3.3,6.9,3.9,8.5,3.9c2,0,2.7-0.8,2.9-1.5C32.1,21.9,31.9,20.9,31.5,20.5
	L31.5,20.5z M29.6,21.9c-0.1,0.7-0.9,1.2-1.8,1.2c-0.3,0-0.5,0-0.8-0.1c-1.8-0.4-3.5-1.4-5.2-2.8c1.7-0.3,3.1-0.3,4-0.3
	c1,0,1.8,0,2.4,0.2C28.8,20.2,29.8,20.6,29.6,21.9L29.6,21.9z M19.6,19.6c-1.2,0.3-2.6,0.6-3.9,0.9c-1.1,0.3-2.2,0.6-3.4,1
	c0.6-1.2,1.1-2.4,1.6-3.5c0.6-1.4,1-2.8,1.5-4.1c0.5,0.8,1,1.6,1.5,2.4C17.8,17.6,18.7,18.7,19.6,19.6L19.6,19.6z M13.4,1.6
	C13.6,1.2,14,1,14.3,1c1,0,1.2,1.2,1.2,2.1c0,1.6-0.5,3.9-1.3,6.6C12.8,6,12.7,2.8,13.4,1.6L13.4,1.6z M8.2,24.1
	c-2.4,4.1-4.7,6.6-6.2,6.6c-0.3,0-0.5-0.1-0.7-0.2c-0.3-0.3-0.4-0.6-0.3-1C1.3,28,4,26,8.2,24.1L8.2,24.1z"/>
</svg>
