<?xml version="1.0" encoding="utf-8"?>
<!-- Generator: Adobe Illustrator 26.0.1, SVG Export Plug-In . SVG Version: 6.00 Build 0)  -->
<svg version="1.1" id="Layer_1" xmlns="http://www.w3.org/2000/svg" xmlns:xlink="http://www.w3.org/1999/xlink" x="0px" y="0px"
	 viewBox="0 0 26.1 32" style="enable-background:new 0 0 26.1 32;" xml:space="preserve">
<style type="text/css">
	.st0{fill:#808285;}
</style>
<path class="st0" d="M21.8,17c0-4.1,3.3-6,3.5-6.1c-1.9-2.8-4.8-3.1-5.9-3.2c-2.5-0.3-4.9,1.5-6.1,1.5C12,9.2,10,7.8,8,7.8
	c-2.7,0-5.2,1.6-6.6,4c-2.8,4.9-0.7,12.2,2,16.1c1.3,1.9,2.9,4.1,5.1,4c2-0.1,2.8-1.3,5.2-1.3s3.1,1.3,5.3,1.3c2.2,0,3.6-2,4.9-3.9
	c1.5-2.3,2.2-4.4,2.2-4.6C26,23.5,21.8,21.8,21.8,17z M17.7,5.1c1.1-1.4,1.9-3.2,1.7-5.1c-1.6,0.1-3.6,1.1-4.7,2.4
	c-1,1.2-1.9,3.1-1.7,5C14.8,7.5,16.6,6.5,17.7,5.1z"/>
</svg>
