<?xml version="1.0" encoding="utf-8"?>
<!-- Generator: Adobe Illustrator 26.0.1, SVG Export Plug-In . SVG Version: 6.00 Build 0)  -->
<svg version="1.1" id="Layer_1" xmlns="http://www.w3.org/2000/svg" xmlns:xlink="http://www.w3.org/1999/xlink" x="0px" y="0px"
	 viewBox="0 0 40 40" style="enable-background:new 0 0 40 40;" xml:space="preserve">
<style type="text/css">
	.st0{fill:#FA6E1E;}
	.st1{fill:none;stroke:#FFFFFF;stroke-miterlimit:10;}
</style>
<rect class="st0" width="40" height="40"/>
<path class="st1" d="M31.5,20c0,0.5-0.2,1-0.6,1.4L20.7,31.6c-0.4,0.4-0.9,0.6-1.4,0.6s-1-0.2-1.4-0.6l-1.2-1.2
	c-0.4-0.4-0.6-0.9-0.6-1.4s0.2-1,0.6-1.4l4.6-4.6h-11c-1.1,0-1.8-0.9-1.8-2v-2c0-1.1,0.7-2,1.8-2h11l-4.6-4.6
	c-0.3-0.4-0.5-0.9-0.5-1.4s0.2-1,0.6-1.4L18,8.5c0.3-0.4,0.8-0.6,1.3-0.6s1,0.2,1.4,0.6l10.2,10.2C31.3,19,31.5,19.5,31.5,20z"/>
</svg>
