<?xml version="1.0" encoding="utf-8"?>
<!-- Generator: Adobe Illustrator 26.0.1, SVG Export Plug-In . SVG Version: 6.00 Build 0)  -->
<svg version="1.1" id="Layer_1" xmlns="http://www.w3.org/2000/svg" xmlns:xlink="http://www.w3.org/1999/xlink" x="0px" y="0px"
	 viewBox="0 0 23 24.3" style="enable-background:new 0 0 23 24.3;" xml:space="preserve">
<path d="M23,12.2c0,0.5-0.2,1-0.6,1.4L12.2,23.8c-0.4,0.4-0.9,0.6-1.4,0.6s-1-0.2-1.4-0.6l-1.2-1.2c-0.4-0.4-0.6-0.9-0.6-1.4
	c0-0.5,0.2-1,0.6-1.4l4.6-4.6h-11c-1.1,0-1.8-0.9-1.8-2v-2c0-1.1,0.7-2,1.8-2h11L8.2,4.6C7.9,4.2,7.7,3.7,7.7,3.2s0.2-1,0.6-1.4
	l1.2-1.2C9.8,0.2,10.3,0,10.8,0s1,0.2,1.4,0.6l10.2,10.2C22.8,11.1,23,11.6,23,12.2z"/>
</svg>
