<?xml version="1.0" encoding="utf-8"?>
<!-- Generator: Adobe Illustrator 26.0.1, SVG Export Plug-In . SVG Version: 6.00 Build 0)  -->
<svg version="1.1" id="Layer_1" xmlns="http://www.w3.org/2000/svg" xmlns:xlink="http://www.w3.org/1999/xlink" x="0px" y="0px"
	 viewBox="0 0 32 32" style="enable-background:new 0 0 32 32;" xml:space="preserve">
<style type="text/css">
	.st0{fill:#FF5722;}
</style>
<path class="st0" d="M29.3,32H2.7C1.2,32,0,30.8,0,29.3V2.7C0,1.2,1.2,0,2.7,0h26.7C30.8,0,32,1.2,32,2.7v26.6
	C32,30.8,30.8,32,29.3,32z M16,5.3h-4c-3.7,0-6.7,3-6.7,6.7v8c0,3.7,3,6.7,6.7,6.7h8c3.7,0,6.7-3,6.7-6.7v-5.3
	c0-0.8-0.6-1.4-1.4-1.4H24c-0.7,0-1.3-0.6-1.3-1.3C22.7,8.3,19.7,5.3,16,5.3z M20.1,21.3H12c-0.7,0-1.3-0.6-1.3-1.3s0.6-1.3,1.3-1.3
	h8.1c0.7,0,1.3,0.6,1.3,1.3S20.8,21.3,20.1,21.3z M16.7,10.7c0.7,0,1.3,0.6,1.3,1.3s-0.6,1.3-1.3,1.3h-4.8c-0.7,0-1.3-0.6-1.3-1.3
	s0.6-1.3,1.3-1.3H16.7z"/>
</svg>
