<?xml version="1.0" encoding="utf-8"?>
<!-- Generator: Adobe Illustrator 26.0.1, SVG Export Plug-In . SVG Version: 6.00 Build 0)  -->
<svg version="1.1" id="Layer_1" xmlns="http://www.w3.org/2000/svg" xmlns:xlink="http://www.w3.org/1999/xlink" x="0px" y="0px"
	 viewBox="0 0 32 17.3" style="enable-background:new 0 0 32 17.3;" xml:space="preserve">
<style type="text/css">
	.st0{fill:#0061D5;}
</style>
<path class="st0" d="M1.3,0C0.6,0,0,0.6,0,1.2v10.1c0.1,3.3,2.8,6,6.1,6c0,0,0,0,0,0h0c2.4,0,4.4-1.3,5.5-3.2l0,0
	c1,1.9,3.1,3.3,5.4,3.3c3.4,0,6.2-2.7,6.2-6.2c0.1-3.3-2.7-6-6.2-6c-2.3,0-4.4,1.3-5.4,3.2c-1-1.9-3.1-3.2-5.5-3.2
	c-1.4,0-2.7,0.5-3.8,1.2V1.2C2.5,0.5,1.9,0,1.3,0L1.3,0L1.3,0z M23.5,5c-0.1,0-0.1,0-0.2,0c-0.3,0-0.5,0.1-0.7,0.2l0,0
	c-0.5,0.4-0.6,1.2-0.2,1.8l3.2,4.2l-3.2,4.2c-0.4,0.6-0.3,1.3,0.2,1.7c0.6,0.4,1.4,0.4,1.8-0.2l2.7-3.5l2.8,3.6
	c0.4,0.5,1.2,0.6,1.8,0.2c0.5-0.4,0.6-1.1,0.2-1.7l-3.1-4.2l3.1-4.1c0.4-0.6,0.4-1.4-0.2-1.8C30.9,5,30.2,5,29.8,5.6L27,9l-2.7-3.6
	C24.1,5.2,23.8,5,23.5,5L23.5,5z M6.2,7.5c2.1,0,3.8,1.7,3.8,3.7c0,2.1-1.7,3.7-3.8,3.7s-3.8-1.6-3.8-3.7C2.4,9.2,4.1,7.5,6.2,7.5z
	 M17.2,7.5c2.1,0,3.8,1.7,3.8,3.7c-0.1,2.1-1.8,3.7-3.8,3.7c-2.1,0-3.8-1.6-3.8-3.7C13.4,9.2,15.1,7.5,17.2,7.5z"/>
</svg>
