<?xml version="1.0" encoding="utf-8"?>
<!-- Generator: Adobe Illustrator 26.0.1, SVG Export Plug-In . SVG Version: 6.00 Build 0)  -->
<svg version="1.1" id="Layer_1" xmlns="http://www.w3.org/2000/svg" xmlns:xlink="http://www.w3.org/1999/xlink" x="0px" y="0px"
	 viewBox="0 0 26 26" style="enable-background:new 0 0 26 26;" xml:space="preserve">
<path d="M13,26C5.8,26,0,20.2,0,13S5.8,0,13,0s13,5.8,13,13S20.2,26,13,26z M19,9.2c0.2-0.2,0.2-0.6,0-0.9L17.6,7
	c-0.2-0.2-0.6-0.2-0.9,0L13,10.8L9.2,7C9,6.8,8.6,6.8,8.3,7L7,8.3C6.8,8.6,6.8,9,7,9.2l3.8,3.8L7,16.7c-0.2,0.2-0.2,0.6,0,0.9
	l1.3,1.3c0.2,0.2,0.6,0.2,0.9,0l3.8-3.8l3.8,3.8c0.2,0.2,0.6,0.2,0.9,0l1.3-1.3c0.2-0.2,0.2-0.6,0-0.9L15.2,13
	C15.2,13,19,9.2,19,9.2z"/>
</svg>
