<?xml version="1.0" encoding="utf-8"?>
<!-- Generator: Adobe Illustrator 26.0.1, SVG Export Plug-In . SVG Version: 6.00 Build 0)  -->
<svg version="1.1" id="Layer_1" xmlns="http://www.w3.org/2000/svg" xmlns:xlink="http://www.w3.org/1999/xlink" x="0px" y="0px"
	 viewBox="0 0 26 26" style="enable-background:new 0 0 26 26;" xml:space="preserve">
<path d="M13,26C5.8,26,0,20.2,0,13S5.8,0,13,0s13,5.8,13,13S20.2,26,13,26z M13,3C7.5,3,3,7.5,3,13s4.5,10,10,10c5.5,0,10-4.5,10-10
	S18.5,3,13,3z M17.5,16.5l-1,1c-0.2,0.2-0.5,0.2-0.7,0L13,14.7l-2.9,2.9c-0.2,0.2-0.5,0.2-0.7,0l-1-1c-0.2-0.2-0.2-0.5,0-0.7
	l2.9-2.9l-2.9-2.9c-0.2-0.2-0.2-0.5,0-0.7l1-1c0.2-0.2,0.5-0.2,0.7,0l2.9,2.9l2.9-2.9c0.2-0.2,0.5-0.2,0.7,0l1,1
	c0.2,0.2,0.2,0.5,0,0.7L14.7,13l2.9,2.9C17.7,16,17.7,16.4,17.5,16.5z"/>
</svg>
