<?xml version="1.0" encoding="utf-8"?>
<!-- Generator: Adobe Illustrator 26.0.1, SVG Export Plug-In . SVG Version: 6.00 Build 0)  -->
<svg version="1.1" id="Layer_1" xmlns="http://www.w3.org/2000/svg" xmlns:xlink="http://www.w3.org/1999/xlink" x="0px" y="0px"
	 viewBox="0 0 18 18" style="enable-background:new 0 0 18 18;" xml:space="preserve">
<path d="M16,0c0.5,0,1,0.2,1.4,0.6S18,1.5,18,2v14c0,0.5-0.2,1-0.6,1.4S16.5,18,16,18H2c-0.5,0-1-0.2-1.4-0.6S0,16.5,0,16V2
	c0-0.5,0.2-1,0.6-1.4S1.5,0,2,0C2,0,16,0,16,0z M16,2H2v14h14C16,16,16,2,16,2z"/>
</svg>
