<?xml version="1.0" encoding="utf-8"?>
<!-- Generator: Adobe Illustrator 26.0.1, SVG Export Plug-In . SVG Version: 6.00 Build 0)  -->
<svg version="1.1" id="Layer_1" xmlns="http://www.w3.org/2000/svg" xmlns:xlink="http://www.w3.org/1999/xlink" x="0px" y="0px"
	 viewBox="0 0 18.6 18.6" style="enable-background:new 0 0 18.6 18.6;" xml:space="preserve">
<path d="M18.6,14.9c0,0.4-0.2,0.8-0.4,1.1L16,18.1c-0.3,0.3-0.7,0.4-1.1,0.4s-0.8-0.2-1.1-0.4l-4.6-4.6l-4.6,4.6
	c-0.3,0.3-0.7,0.4-1.1,0.4s-0.8-0.2-1.1-0.4L0.4,16C0.2,15.7,0,15.3,0,14.9s0.2-0.8,0.4-1.1L5,9.3L0.4,4.7C0.2,4.4,0,4,0,3.6
	s0.2-0.8,0.4-1.1l2.1-2.1C2.8,0.2,3.2,0,3.6,0s0.8,0.2,1.1,0.4L9.3,5l4.6-4.6C14.2,0.2,14.5,0,14.9,0s0.8,0.2,1.1,0.4l2.1,2.1
	c0.3,0.3,0.4,0.7,0.4,1.1s-0.2,0.8-0.4,1.1l-4.6,4.6l4.6,4.6C18.4,14.2,18.6,14.5,18.6,14.9z"/>
</svg>
