<?xml version="1.0" encoding="utf-8"?>
<!-- Generator: Adobe Illustrator 26.0.1, SVG Export Plug-In . SVG Version: 6.00 Build 0)  -->
<svg version="1.1" id="Layer_1" xmlns="http://www.w3.org/2000/svg" xmlns:xlink="http://www.w3.org/1999/xlink" x="0px" y="0px"
	 viewBox="0 0 30 27" style="enable-background:new 0 0 30 27;" xml:space="preserve">
<path d="M19,10V7l-6-7H2C0.9,0,0,0.9,0,2v23c0,1.1,0.9,2,2,2h15c1.1,0,2-0.9,2-2v-2h8c1.7,0,3-1.3,3-3v-7c0-1.7-1.3-3-3-3L19,10
	L19,10z M18,23v2c0,0.5-0.4,1-1,1H2c-0.5,0-1-0.4-1-1V2c0-0.5,0.4-1,1-1h10v5c0,1.1,0.9,2,2,2h4v2h-8c-1.7,0-3,1.3-3,3v7
	c0,1.7,1.3,3,3,3L18,23L18,23z M13,1.5L17.7,7H14c-0.5,0-1-0.5-1-1C13,6,13,1.5,13,1.5z M10,11h17c1.1,0,2,0.9,2,2v7
	c0,1.1-0.9,2-2,2H10c-1.1,0-2-0.9-2-2v-7C8,11.9,8.9,11,10,11z M23,16v-2h4v-1h-5v7h1v-3h3v-1H23z M10,15v-2h3c1.1,0,2,0.9,2,2
	c0,1.1-0.9,2-2,2h-2v3h-1V15z M11,14v2h2c0.6,0,1-0.4,1-1c0-0.6-0.4-1-1-1H11z M16,13h3c1.1,0,2,0.9,2,2v3c0,1.1-0.9,2-2,2h-3V13z
	 M17,14v5h2c0.6,0,1-0.4,1-1v-3c0-0.6-0.4-1-1-1H17z"/>
</svg>
