<?xml version="1.0" encoding="utf-8"?>
<!-- Generator: Adobe Illustrator 26.0.1, SVG Export Plug-In . SVG Version: 6.00 Build 0)  -->
<svg version="1.1" id="Layer_1" xmlns="http://www.w3.org/2000/svg" xmlns:xlink="http://www.w3.org/1999/xlink" x="0px" y="0px"
	 viewBox="0 0 29 27" style="enable-background:new 0 0 29 27;" xml:space="preserve">
<path d="M19,23v2c0,1.1-0.9,2-2,2H2c-1.1,0-2-0.9-2-2V2c0-1.1,0.9-2,2-2h10v6c0,1.1,0.9,2,2,2h5v2h-9c-1.7,0-3,1.3-3,3v7
	c0,1.7,1.3,3,3,3L19,23L19,23z M13,0v6c0,0.6,0.5,1,1,1h5L13,0z M10,11h17c1.1,0,2,0.9,2,2v7c0,1.1-0.9,2-2,2H10c-1.1,0-2-0.9-2-2
	v-7C8,11.9,8.9,11,10,11z M23,16v-2h4v-1h-5v7h1v-3h3v-1H23z M10,15v5h1v-3h2c1.1,0,2-0.9,2-2c0-1.1-0.9-2-2-2h-3V15z M11,14v2h2
	c0.6,0,1-0.4,1-1c0-0.6-0.4-1-1-1H11z M16,13v7h3c1.1,0,2-0.9,2-2v-3c0-1.1-0.9-2-2-2H16z M17,14v5h2c0.6,0,1-0.4,1-1v-3
	c0-0.6-0.4-1-1-1H17z"/>
</svg>
