<?xml version="1.0" encoding="utf-8"?>
<!-- Generator: Adobe Illustrator 26.0.1, SVG Export Plug-In . SVG Version: 6.00 Build 0)  -->
<svg version="1.1" id="Layer_1" xmlns="http://www.w3.org/2000/svg" xmlns:xlink="http://www.w3.org/1999/xlink" x="0px" y="0px"
	 viewBox="0 0 24 24" style="enable-background:new 0 0 24 24;" xml:space="preserve">
<style type="text/css">
	.st0{fill:#052049;}
</style>
<path class="st0" d="M20,12.5V5c0-0.5-0.5-1-1-1h-7.5c-0.4,0-0.8,0.2-0.9,0.6c-0.2,0.4-0.1,0.8,0.2,1.1L13,8l-8.3,8.3
	c-0.4,0.4-0.4,1,0,1.4l1.6,1.6c0.4,0.4,1,0.4,1.4,0L16,11l2.2,2.2c0.2,0.2,0.4,0.3,0.7,0.3c0.1,0,0.3,0,0.4-0.1
	C19.8,13.3,20,12.9,20,12.5z M24,4.5v15c0,2.5-2,4.5-4.5,4.5h-15C2,24,0,22,0,19.5v-15C0,2,2,0,4.5,0h15C22,0,24,2,24,4.5z"/>
</svg>
