<?xml version="1.0" encoding="utf-8"?>
<!-- Generator: Adobe Illustrator 26.0.3, SVG Export Plug-In . SVG Version: 6.00 Build 0)  -->
<svg version="1.1" id="Layer_1" xmlns="http://www.w3.org/2000/svg" xmlns:xlink="http://www.w3.org/1999/xlink" x="0px" y="0px"
	 viewBox="0 0 29.1 29.1" style="enable-background:new 0 0 29.1 29.1;" xml:space="preserve">
<style type="text/css">
	.st0{fill:#052049;}
	.st1{fill:none;stroke:#052049;stroke-width:3;stroke-miterlimit:10;}
</style>
<path id="arrow" class="st0" d="M23.4,18.4V7.2c0-0.8-0.8-1.5-1.5-1.5H10.7c-0.6,0-1.2,0.3-1.3,0.9C9,7.2,9.2,7.8,9.6,8.2l3.3,3.4
	L0.5,24.1c-0.6,0.6-0.6,1.5,0,2.1l2.4,2.4c0.6,0.6,1.5,0.6,2.1,0l12.4-12.4l3.3,3.3c0.3,0.3,0.6,0.5,1.1,0.5c0.2,0,0.4,0,0.6-0.1
	C23.1,19.6,23.4,19,23.4,18.4z"/>
<g id="box">
	<path id="small_box" class="st1" d="M27.6,5.7v13.9c0,2.4-1.8,4.2-4.2,4.2H9.6c-2.4,0-4.2-1.8-4.2-4.2V5.7c0-2.4,1.8-4.2,4.2-4.2
		h13.9C25.7,1.5,27.6,3.3,27.6,5.7z"/>
</g>
</svg>
