<?xml version="1.0" encoding="utf-8"?>
<!-- Generator: Adobe Illustrator 26.0.3, SVG Export Plug-In . SVG Version: 6.00 Build 0)  -->
<svg version="1.1" id="Layer_1" xmlns="http://www.w3.org/2000/svg" xmlns:xlink="http://www.w3.org/1999/xlink" x="0px" y="0px"
	 viewBox="0 0 70.2 24" style="enable-background:new 0 0 70.2 24;" xml:space="preserve">
<style type="text/css">
	.st0{fill:#808285;}
	.st1{fill:#FFFFFF;}
</style>
<path class="st0" d="M66.2,12.5V5c0-0.5-0.5-1-1-1h-7.5c-0.4,0-0.8,0.2-0.9,0.6C56.7,5,56.8,5.4,57,5.7L59.2,8L51,16.3
	c-0.4,0.4-0.4,1,0,1.4l1.6,1.6c0.4,0.4,1,0.4,1.4,0l8.3-8.3l2.2,2.2c0.2,0.2,0.4,0.3,0.7,0.3c0.1,0,0.3,0,0.4-0.1
	C66.1,13.3,66.2,12.9,66.2,12.5z M70.2,4.5v15c0,2.5-2,4.5-4.5,4.5H4.5C2,24,0,22,0,19.5v-15C0,2,2,0,4.5,0h61.2
	C68.2,0,70.2,2,70.2,4.5z"/>
<g>
	<path class="st1" d="M12.9,15.5L12.9,15.5l0-11.7h3.2v17.1h-3.9l-4.2-12h0v12H4.7V3.8h4L12.9,15.5z"/>
	<path class="st1" d="M27.6,6.6h-6.1v4h5.8v2.8h-5.8v4.6h6.4v2.8H18V3.8h9.6V6.6z"/>
	<path class="st1" d="M32.3,3.8l1.9,12.7h0l2-12.7h3.3l2,12.7h0l1.9-12.7h3.3l-3.1,17.1h-3.9L38,8.5h0L36,20.9h-3.9L29,3.8H32.3z"/>
</g>
</svg>
