<?xml version="1.0" encoding="utf-8"?>
<!-- Generator: Adobe Illustrator 26.0.1, SVG Export Plug-In . SVG Version: 6.00 Build 0)  -->
<svg version="1.1" id="Layer_1" xmlns="http://www.w3.org/2000/svg" xmlns:xlink="http://www.w3.org/1999/xlink" x="0px" y="0px"
	 viewBox="0 0 22 22" style="enable-background:new 0 0 22 22;" xml:space="preserve">
<path d="M6,19c0,1.7-1.3,3-3,3s-3-1.3-3-3s1.3-3,3-3S6,17.3,6,19z M14,20.9c0,0.3-0.1,0.5-0.3,0.8C13.5,21.9,13.3,22,13,22h-2.1
	c-0.5,0-0.9-0.4-1-0.9c-0.5-4.8-4.2-8.5-9-9c-0.5,0-0.9-0.5-0.9-1V9c0-0.3,0.1-0.5,0.3-0.7C0.5,8.1,0.8,8,1,8h0.1
	c3.3,0.3,6.5,1.7,8.8,4.1C12.3,14.5,13.7,17.6,14,20.9L14,20.9z M22,21c0,0.3-0.1,0.5-0.3,0.7C21.5,21.9,21.3,22,21,22h-2.2
	c-0.5,0-1-0.4-1-0.9C17.2,12,10,4.8,0.9,4.2C0.4,4.2,0,3.7,0,3.2V1c0-0.3,0.1-0.5,0.3-0.7C0.5,0.1,0.8,0,1,0h0
	c5.5,0.3,10.6,2.6,14.5,6.5C19.4,10.3,21.7,15.5,22,21L22,21z"/>
</svg>
