<?xml version="1.0" encoding="utf-8"?>
<!-- Generator: Adobe Illustrator 26.0.1, SVG Export Plug-In . SVG Version: 6.00 Build 0)  -->
<svg version="1.1" id="Layer_1" xmlns="http://www.w3.org/2000/svg" xmlns:xlink="http://www.w3.org/1999/xlink" x="0px" y="0px"
	 viewBox="0 0 24 28" style="enable-background:new 0 0 24 28;" xml:space="preserve">
<path d="M22.9,5.9C23.5,6.5,24,7.7,24,8.5v18c0,0.8-0.7,1.5-1.5,1.5h-21C0.7,28,0,27.3,0,26.5v-25C0,0.7,0.7,0,1.5,0h14
	c0.8,0,2,0.5,2.6,1.1L22.9,5.9z M16,2.1V8h5.9c-0.1-0.3-0.2-0.5-0.3-0.6l-4.9-4.9C16.5,2.4,16.3,2.2,16,2.1L16,2.1z M22,26V10h-6.5
	C14.7,10,14,9.3,14,8.5V2H2v24H22z M14,16.7c0.4,0.3,0.8,0.6,1.3,0.9c0.7-0.1,1.3-0.1,1.8-0.1c1,0,2.4,0.1,2.8,0.8
	c0.1,0.2,0.2,0.4,0,0.8c0,0,0,0,0,0.1v0c0,0.3-0.3,0.6-1.1,0.6c-1,0-2.5-0.5-3.8-1.1c-2.2,0.2-4.5,0.7-6.1,1.3C7.2,22.7,6,24,5,24
	c-0.2,0-0.3,0-0.4-0.1l-0.4-0.2c0,0-0.1,0-0.1-0.1C4,23.5,4,23.4,4,23.1c0.2-0.7,1-1.9,2.9-2.9c0.1-0.1,0.3,0,0.4,0.1c0,0,0,0,0,0.1
	c0.5-0.8,1-1.8,1.7-3.1c0.7-1.4,1.2-2.8,1.6-4.1c-0.5-1.7-0.7-3.5-0.4-4.5C10.4,8.2,10.6,8,10.9,8h0.3c0.2,0,0.4,0.1,0.5,0.2
	C12,8.5,12,8.8,12,9.3c0,0,0,0.1-0.1,0.1c0,0,0,0.1,0,0.1V10c0,1,0,1.9-0.2,3C12.2,14.7,13,16,14,16.7L14,16.7z M5,23.2
	c0.5-0.2,1.1-0.9,2.1-2.5C5.9,21.6,5.2,22.6,5,23.2z M11.2,8.8c-0.2,0.4-0.2,1.2,0,2.1c0-0.2,0.1-0.5,0.1-0.7c0-0.3,0.1-0.5,0.1-0.7
	c0,0,0-0.1,0.1-0.1c0,0,0,0,0-0.1C11.4,9,11.3,8.8,11.2,8.8C11.2,8.8,11.2,8.8,11.2,8.8L11.2,8.8z M9.3,19.1c1.4-0.5,2.9-1,4.4-1.3
	c-0.2-0.1-0.3-0.2-0.5-0.4c-0.8-0.7-1.5-1.6-2-2.8c-0.3,1-0.7,2-1.3,3.1C9.7,18.2,9.5,18.7,9.3,19.1L9.3,19.1z M19.3,18.9
	c-0.1-0.1-0.5-0.4-2.2-0.4c0.8,0.3,1.5,0.4,1.9,0.4C19.2,18.9,19.3,18.9,19.3,18.9C19.4,18.9,19.4,18.9,19.3,18.9L19.3,18.9z"/>
</svg>
