<?xml version="1.0" encoding="utf-8"?>
<!-- Generator: Adobe Illustrator 26.0.1, SVG Export Plug-In . SVG Version: 6.00 Build 0)  -->
<svg version="1.1" id="Layer_1" xmlns="http://www.w3.org/2000/svg" xmlns:xlink="http://www.w3.org/1999/xlink" x="0px" y="0px"
	 viewBox="0 0 24 24" style="enable-background:new 0 0 24 24;" xml:space="preserve">
<path fill="#808285" d="M19.5,0C22,0,24,2,24,4.5v15c0,2.5-2,4.5-4.5,4.5h-15C2,24,0,22,0,19.5v-15C0,2,2,0,4.5,0H19.5z M10.9,12
	c0-1.8-1.5-3.3-3.3-3.3S4.3,10.2,4.3,12s1.5,3.3,3.3,3.3S10.9,13.8,10.9,12z M19.7,12c0-1.8-1.5-3.3-3.3-3.3s-3.3,1.5-3.3,3.3
	s1.5,3.3,3.3,3.3S19.7,13.8,19.7,12z"/>
</svg>
