<?xml version="1.0" encoding="utf-8"?>
<!-- Generator: Adobe Illustrator 26.0.1, SVG Export Plug-In . SVG Version: 6.00 Build 0)  -->
<svg version="1.1" id="Layer_1" xmlns="http://www.w3.org/2000/svg" xmlns:xlink="http://www.w3.org/1999/xlink" x="0px" y="0px"
	 viewBox="0 0 31.4 32" style="enable-background:new 0 0 31.4 32;" xml:space="preserve">
<style type="text/css">
	.st0{fill:#4285F4;}
</style>
<path class="st0" d="M16,13.7v5.5h9.1c-0.4,2.4-2.7,6.9-9.1,6.9c-5.5,0-9.9-4.5-9.9-10.1S10.5,5.9,16,5.9c3.1,0,5.2,1.3,6.4,2.5
	l4.3-4.2C23.9,1.6,20.3,0,16,0C7.2,0,0,7.2,0,16s7.2,16,16,16c9.2,0,15.4-6.5,15.4-15.6c0-1.1-0.1-1.9-0.3-2.7L16,13.7z"/>
</svg>
