<?xml version="1.0" encoding="utf-8"?>
<!-- Generator: Adobe Illustrator 26.0.1, SVG Export Plug-In . SVG Version: 6.00 Build 0)  -->
<svg version="1.1" id="Layer_1" xmlns="http://www.w3.org/2000/svg" xmlns:xlink="http://www.w3.org/1999/xlink" x="0px" y="0px"
	 viewBox="0 0 20 20" style="enable-background:new 0 0 20 20;" xml:space="preserve">
<path d="M3.1,17.2C1.2,15.4,0,12.8,0,10C0,4.5,4.5,0,10,0c2.8,0,5.4,1.2,7.2,3l0,0C18.9,4.8,20,7.3,20,10c0,5.5-4.5,10-10,10
	C7.3,20,4.8,18.9,3.1,17.2C3,17.2,3.1,17.2,3.1,17.2z M9.1,11.1v4h2v-6h-2V11.1z M9.1,5.1v2h2v-2H9.1z"/>
</svg>
