<?xml version="1.0" encoding="utf-8"?>
<!-- Generator: Adobe Illustrator 26.0.1, SVG Export Plug-In . SVG Version: 6.00 Build 0)  -->
<svg version="1.1" id="Layer_1" xmlns="http://www.w3.org/2000/svg" xmlns:xlink="http://www.w3.org/1999/xlink" x="0px" y="0px"
	 viewBox="0 0 20 20" style="enable-background:new 0 0 20 20;" xml:space="preserve">
<path d="M3.1,17.2C1.2,15.4,0,12.8,0,10C0,4.5,4.5,0,10,0c2.8,0,5.4,1.2,7.2,3l0,0C18.9,4.8,20,7.3,20,10c0,5.5-4.5,10-10,10
	C7.3,20,4.8,18.9,3.1,17.2C3,17.2,3.1,17.2,3.1,17.2z M15.8,15.8c1.4-1.4,2.3-3.4,2.3-5.7c0-4.4-3.6-8-8-8C7.9,2.1,5.9,3,4.5,4.5
	l0,0C3,5.9,2.1,7.9,2.1,10.1c0,4.4,3.6,8,8,8C12.3,18.1,14.3,17.2,15.8,15.8L15.8,15.8z M9.1,11.1v-2h2v6h-2V11.1z M9.1,5.1h2v2h-2
	V5.1z"/>
</svg>
