<?xml version="1.0" encoding="utf-8"?>
<!-- Generator: Adobe Illustrator 26.0.1, SVG Export Plug-In . SVG Version: 6.00 Build 0)  -->
<svg version="1.1" id="Layer_1" xmlns="http://www.w3.org/2000/svg" xmlns:xlink="http://www.w3.org/1999/xlink" x="0px" y="0px"
	 viewBox="0 0 32 30.3" style="enable-background:new 0 0 32 30.3;" xml:space="preserve">
<style type="text/css">
	.st0{fill:#D24726;}
</style>
<path class="st0" d="M31.3,4.5H19.9v4.2C20.6,8.2,21.4,8,22.4,8v4.1h4.1c0,1.2-0.4,2.1-1.2,2.9c-0.8,0.8-1.8,1.2-2.9,1.2
	c-0.9,0-1.7-0.3-2.4-0.8v2.8h9v1.4h-9v1.7h9v1.4h-9v3.1h11.4c0.5,0,0.7-0.2,0.7-0.7v-20C32,4.7,31.8,4.5,31.3,4.5L31.3,4.5z
	 M23,11.4V7.2c1.2,0,2.1,0.4,2.9,1.2c0.8,0.8,1.2,1.8,1.2,3H23z M11,11.5c-0.1-0.3-0.2-0.5-0.4-0.6c-0.2-0.1-0.4-0.3-0.6-0.3
	c-0.3-0.1-0.6-0.1-0.9-0.1l-1,0v4h0c0.3,0,0.7,0,1.1,0c0.4,0,0.7-0.1,1.1-0.3c0.4-0.3,0.7-0.7,0.7-1.2C11.2,12.4,11.1,11.9,11,11.5
	L11,11.5z M0,3.2v23.9l18.3,3.2V0L0,3.2z M13.6,14c-0.5,1.2-1.2,1.9-2.2,2.2c-1,0.3-2.1,0.4-3.2,0.4v4.6l-2.4-0.3V8.4l3.8-0.2
	c0.7,0,1.4,0,2.1,0.2c0.7,0.2,1.2,0.6,1.6,1.2c0.4,0.6,0.6,1.3,0.7,2.1C14,12.6,13.9,13.3,13.6,14L13.6,14z"/>
</svg>
