<?xml version="1.0" encoding="utf-8"?>
<!-- Generator: Adobe Illustrator 26.0.1, SVG Export Plug-In . SVG Version: 6.00 Build 0)  -->
<svg version="1.1" id="Layer_1" xmlns="http://www.w3.org/2000/svg" xmlns:xlink="http://www.w3.org/1999/xlink" x="0px" y="0px"
	 viewBox="0 0 32 18.8" style="enable-background:new 0 0 32 18.8;" xml:space="preserve">
<style type="text/css">
	.st0{fill:#094AB2;}
</style>
<path class="st0" d="M6.6,16.8c-0.7,0.4-1.4,0.6-2.2,0.6c-1.2,0-2.2-0.5-3-1.3c-0.8-0.8-1.2-1.8-1.3-3C0,12,0.4,11,1.1,10.2
	c0.7-0.8,1.6-1.3,2.7-1.4c0-0.2-0.1-0.5-0.1-0.8c0-1.5,0.6-2.8,1.6-3.8c1-1,2.3-1.5,3.8-1.5c1,0,1.8,0.2,2.6,0.7
	c0.6-1,1.5-1.9,2.5-2.5c1-0.6,2.2-0.9,3.5-1c1.7,0,3.2,0.6,4.4,1.6c1.2,1,2,2.4,2.3,4h-0.4c-0.6,0-1.2,0.1-1.6,0.3
	c-0.6-0.7-1.4-1.2-2.2-1.6c-0.8-0.4-1.7-0.5-2.7-0.5c-0.9,0-1.7,0.1-2.5,0.4c-0.8,0.3-1.5,0.7-2.2,1.3c-0.6,0.5-1,1-1.4,1.6
	s-0.6,1.3-0.8,2c-0.5,0.1-0.9,0.2-1.4,0.4C8.6,9.9,8,10.4,7.6,10.9c-0.4,0.5-0.8,1.1-1,1.7c-0.2,0.7-0.3,1.3-0.3,2.1
	c0,0.8,0.1,1.5,0.4,2.2L6.6,16.8z M29,11.8c2.1,0.5,3.1,1.8,3,3.7c-0.1,2-1.3,3-3.4,3.3h-17c-2.8-0.4-4.2-1.8-4.1-4.4
	c0-2.5,1.5-3.9,4.3-4.2c0.4-2.7,1.8-4.4,4.2-5c2.4-0.7,4.5,0.1,6.1,2.2c0.6-0.5,1.3-0.7,2.2-0.6c0.9,0.1,1.6,0.2,2.3,0.6
	c0.8,0.4,1.4,1,1.9,1.8C28.8,10,29,10.9,29,11.8L29,11.8z"/>
</svg>
