<?xml version="1.0" encoding="utf-8"?>
<!-- Generator: Adobe Illustrator 26.0.1, SVG Export Plug-In . SVG Version: 6.00 Build 0)  -->
<svg version="1.1" id="Layer_1" xmlns="http://www.w3.org/2000/svg" xmlns:xlink="http://www.w3.org/1999/xlink" x="0px" y="0px"
	 viewBox="0 0 32 28.6" style="enable-background:new 0 0 32 28.6;" xml:space="preserve">
<style type="text/css">
	.st0{fill:#6264A7;}
</style>
<path class="st0" d="M12.4,5.7h3.2c0.8,0,1.5,0.7,1.5,1.5v2.1c2.5,0,4.6-2.1,4.6-4.7c0-2.6-2.1-4.7-4.7-4.7s-4.7,2.1-4.7,4.7
	C12.2,5,12.3,5.4,12.4,5.7C12.4,5.8,12.4,5.7,12.4,5.7z M27.1,9.3L27.1,9.3C27.1,9.3,27.1,9.3,27.1,9.3c1.8,0,3.2-1.4,3.2-3.2
	s-1.4-3.2-3.2-3.2l0,0c0,0,0,0,0,0c-1.8,0-3.2,1.4-3.2,3.2C23.9,7.9,25.3,9.3,27.1,9.3L27.1,9.3z M16.3,21.4V7.8
	c0-0.8-0.6-1.4-1.4-1.4H1.4C0.6,6.4,0,7,0,7.8v13.6c0,0.8,0.6,1.4,1.4,1.4H15C15.7,22.7,16.3,22.1,16.3,21.4L16.3,21.4L16.3,21.4
	L16.3,21.4z M11.7,11.4H9V19H7.3v-7.6H4.7V9.9h7L11.7,11.4z M30.7,11.1H17v10.9c0,0.8-0.7,1.5-1.5,1.5H9.9c1.2,3,4.2,5.2,7.6,5.2
	c1.1,0,2.1-0.2,3.1-0.6l-0.1,0c1.9-0.8,3.4-2.2,4.3-4l0,0c0.7,0.3,1.4,0.5,2.2,0.5c0,0,0,0,0,0h0c2.7,0,4.9-2.2,4.9-4.9l0,0v-7.1
	C32,11.7,31.4,11.1,30.7,11.1L30.7,11.1z"/>
</svg>
