<?xml version="1.0" encoding="utf-8"?>
<!-- Generator: Adobe Illustrator 26.0.1, SVG Export Plug-In . SVG Version: 6.00 Build 0)  -->
<svg version="1.1" id="Layer_1" xmlns="http://www.w3.org/2000/svg" xmlns:xlink="http://www.w3.org/1999/xlink" x="0px" y="0px"
	 viewBox="0 0 32 31.4" style="enable-background:new 0 0 32 31.4;" xml:space="preserve">
<style type="text/css">
	.st0{fill:#217346;}
</style>
<path class="st0" d="M31.4,3.8H20.7v2h3.2V9h-3.2v1h3.2v3.1h-3.2v1h3.2v3h-3.2v1.2h3.2v3h-3.2v1.2h3.2v3h-3.2v2.2h10.7
	c0.2-0.1,0.3-0.3,0.4-0.6c0.1-0.3,0.2-0.6,0.2-0.8v-22c0-0.2-0.1-0.3-0.2-0.3C31.7,3.9,31.6,3.8,31.4,3.8L31.4,3.8z M30,25.5h-5.1
	v-3H30V25.5L30,25.5z M30,21.3h-5.1v-3H30V21.3z M30,17.1h-5.1v-3H30V17.1L30,17.1z M30,13.1h-5.1V10H30V13.1L30,13.1z M30,8.9h-5.1
	V5.8H30V8.9L30,8.9z M0,3.3v24.8l18.9,3.3V0L0,3.3L0,3.3z M11.2,22.1c-0.1-0.2-0.4-1-1-2.5c-0.6-1.5-1-2.3-1.1-2.6h0l-2,4.8
	l-2.7-0.2l3.2-6l-2.9-6l2.8-0.1l1.8,4.7h0l2.1-4.9l2.9-0.2l-3.4,6.5l3.5,6.6L11.2,22.1L11.2,22.1z"/>
</svg>
