<?xml version="1.0" encoding="utf-8"?>
<!-- Generator: Adobe Illustrator 26.0.1, SVG Export Plug-In . SVG Version: 6.00 Build 0)  -->
<svg version="1.1" id="Layer_1" xmlns="http://www.w3.org/2000/svg" xmlns:xlink="http://www.w3.org/1999/xlink" x="0px" y="0px"
	 viewBox="0 0 32 30.3" style="enable-background:new 0 0 32 30.3;" xml:space="preserve">
<style type="text/css">
	.st0{fill:#2B579A;}
</style>
<path class="st0" d="M32,4.1v22.1c0,0.2-0.1,0.3-0.2,0.5c-0.1,0.1-0.3,0.2-0.5,0.2H19.9v-3.1h9.3v-1.4h-9.3v-1.7h9.3v-1.4h-9.3v-1.7
	h9.3v-1.4h-9.3v-1.7h9.3v-1.4h-9.3v-1.7h9.3V10h-9.3V8.2h9.3V6.9h-9.3V3.5h11.4c0.2,0,0.4,0.1,0.5,0.2C31.9,3.8,32,3.9,32,4.1
	L32,4.1z M18.2,0v30.3L0,27.2V3.2L18.2,0L18.2,0z M15.5,8.9l-2.3,0.1l-1.5,9h0c-0.1-0.4-0.3-1.9-0.8-4.5L10,9.3L7.9,9.4L7,13.6
	c-0.5,2.5-0.8,3.9-0.9,4.3h0L4.8,9.6l-2,0.1L5,20.2l2.2,0.1L8,16.3c0.5-2.4,0.8-3.8,0.8-4.2h0.1c0.1,0.4,0.3,1.8,0.8,4.3l0.8,4.2
	l2.4,0.1L15.5,8.9L15.5,8.9z"/>
</svg>
