<?xml version="1.0" encoding="utf-8"?>
<!-- Generator: Adobe Illustrator 26.0.1, SVG Export Plug-In . SVG Version: 6.00 Build 0)  -->
<svg version="1.1" id="Layer_1" xmlns="http://www.w3.org/2000/svg" xmlns:xlink="http://www.w3.org/1999/xlink" x="0px" y="0px"
	 viewBox="0 0 26 22" style="enable-background:new 0 0 26 22;" xml:space="preserve">
<path d="M12,3v11c0,4.4-3.6,8-8,8H3c-0.5,0-1-0.5-1-1v-2c0-0.5,0.5-1,1-1h1c2.2,0,4-1.8,4-4v-0.5C8,12.7,7.3,12,6.5,12H3
	c-1.7,0-3-1.3-3-3V3c0-1.7,1.3-3,3-3h6C10.7,0,12,1.3,12,3z M26,3v11c0,4.4-3.6,8-8,8h-1c-0.5,0-1-0.5-1-1v-2c0-0.5,0.5-1,1-1h1
	c2.2,0,4-1.8,4-4v-0.5c0-0.8-0.7-1.5-1.5-1.5H17c-1.7,0-3-1.3-3-3V3c0-1.7,1.3-3,3-3h6C24.7,0,26,1.3,26,3z"/>
</svg>
