<?xml version="1.0" encoding="utf-8"?>
<!-- Generator: Adobe Illustrator 26.0.1, SVG Export Plug-In . SVG Version: 6.00 Build 0)  -->
<svg version="1.1" id="Layer_1" xmlns="http://www.w3.org/2000/svg" xmlns:xlink="http://www.w3.org/1999/xlink" x="0px" y="0px"
	 viewBox="0 0 26 22" style="enable-background:new 0 0 26 22;" xml:space="preserve">
<path d="M12,13v6c0,1.7-1.3,3-3,3H3c-1.7,0-3-1.3-3-3V8c0-4.4,3.6-8,8-8h1c0.5,0,1,0.5,1,1v2c0,0.5-0.5,1-1,1H8C5.8,4,4,5.8,4,8v0.5
	C4,9.3,4.7,10,5.5,10H9C10.7,10,12,11.3,12,13z M26,13v6c0,1.7-1.3,3-3,3h-6c-1.7,0-3-1.3-3-3V8c0-4.4,3.6-8,8-8h1c0.5,0,1,0.5,1,1
	v2c0,0.5-0.5,1-1,1h-1c-2.2,0-4,1.8-4,4v0.5c0,0.8,0.7,1.5,1.5,1.5H23C24.7,10,26,11.3,26,13z"/>
</svg>
