<?xml version="1.0" encoding="utf-8"?>
<!-- Generator: Adobe Illustrator 26.0.1, SVG Export Plug-In . SVG Version: 6.00 Build 0)  -->
<svg version="1.1" id="Layer_1" xmlns="http://www.w3.org/2000/svg" xmlns:xlink="http://www.w3.org/1999/xlink" x="0px" y="0px"
	 viewBox="0 0 32 22" style="enable-background:new 0 0 32 22;" xml:space="preserve">
<path d="M25,14c-3.9,0-7-3.1-7-7s3.1-7,7-7s7,3.1,7,7l0,1c0,7.7-6.3,14-14,14v-4c2.7,0,5.2-1,7.1-2.9c0.4-0.4,0.7-0.8,1-1.2
	C25.7,14,25.4,14,25,14z M7,14c-3.9,0-7-3.1-7-7s3.1-7,7-7s7,3.1,7,7l0,1c0,7.7-6.3,14-14,14v-4c2.7,0,5.2-1,7.1-2.9
	c0.4-0.4,0.7-0.8,1-1.2C7.7,14,7.4,14,7,14z"/>
</svg>
