<?xml version="1.0" encoding="utf-8"?>
<!-- Generator: Adobe Illustrator 26.0.1, SVG Export Plug-In . SVG Version: 6.00 Build 0)  -->
<svg version="1.1" id="Layer_1" xmlns="http://www.w3.org/2000/svg" xmlns:xlink="http://www.w3.org/1999/xlink" x="0px" y="0px"
	 viewBox="0 0 24 24" style="enable-background:new 0 0 24 24;" xml:space="preserve">
<path d="M8,18c0-1.1-0.9-2-2-2s-2,0.9-2,2s0.9,2,2,2S8,19.1,8,18z M13.5,19.5c-0.3-4.8-4.1-8.7-9-9c-0.1,0-0.3,0-0.4,0.1
	S4,10.9,4,11v2c0,0.3,0.2,0.5,0.5,0.5c3.2,0.2,5.8,2.8,6,6c0,0.3,0.2,0.5,0.5,0.5h2c0.1,0,0.3-0.1,0.4-0.2S13.5,19.6,13.5,19.5
	L13.5,19.5z M19.5,19.5c-0.3-8.1-6.8-14.7-15-15c-0.2,0-0.3,0-0.4,0.1C4.1,4.7,4,4.9,4,5v2c0,0.3,0.2,0.5,0.5,0.5
	c6.5,0.2,11.8,5.5,12,12c0,0.3,0.2,0.5,0.5,0.5h2c0.1,0,0.3-0.1,0.4-0.2C19.5,19.7,19.5,19.6,19.5,19.5z M24,4.5v15
	c0,2.5-2,4.5-4.5,4.5h-15C2,24,0,22,0,19.5v-15C0,2,2,0,4.5,0h15C22,0,24,2,24,4.5z"/>
</svg>
