<?xml version="1.0" encoding="utf-8"?>
<!-- Generator: Adobe Illustrator 26.0.1, SVG Export Plug-In . SVG Version: 6.00 Build 0)  -->
<svg version="1.1" id="Layer_1" xmlns="http://www.w3.org/2000/svg" xmlns:xlink="http://www.w3.org/1999/xlink" x="0px" y="0px"
	 viewBox="0 0 32 32" style="enable-background:new 0 0 32 32;" xml:space="preserve">
<path d="M31.7,29c0.4,0.4,0.4,1,0,1.4l-1.4,1.4c-0.4,0.4-1,0.4-1.4,0L19.3,22c-0.1-0.1-0.2-0.2-0.2-0.4c-2,1.4-4.4,2.3-7.1,2.3
	C5.4,24,0,18.6,0,12S5.4,0,12,0s12,5.4,12,12c0,2.6-0.9,5.1-2.3,7.1c0.1,0,0.3,0.1,0.4,0.2L31.7,29z M12,4c-4.4,0-8,3.6-8,8
	s3.6,8,8,8s8-3.6,8-8S16.4,4,12,4z"/>
</svg>
