<?xml version="1.0" encoding="utf-8"?>
<!-- Generator: Adobe Illustrator 26.0.1, SVG Export Plug-In . SVG Version: 6.00 Build 0)  -->
<svg version="1.1" id="Layer_1" xmlns="http://www.w3.org/2000/svg" xmlns:xlink="http://www.w3.org/1999/xlink" x="0px" y="0px"
	 viewBox="0 0 27.8 32" style="enable-background:new 0 0 27.8 32;" xml:space="preserve">
<path d="M14.6,0c1.7,0,3.5,0,5.2,0c0.1,2,0.8,4.1,2.3,5.6c1.5,1.5,3.6,2.2,5.7,2.4v5.4c-1.9-0.1-3.9-0.5-5.6-1.3
	c-0.8-0.3-1.5-0.8-2.2-1.2c0,3.9,0,7.8,0,11.7c-0.1,1.9-0.7,3.7-1.8,5.3c-1.7,2.6-4.8,4.2-7.9,4.3c-1.9,0.1-3.8-0.4-5.4-1.4
	C2.2,29,0.3,26.1,0,23c0-0.7,0-1.3,0-2c0.2-2.5,1.5-5,3.4-6.6c2.2-1.9,5.3-2.8,8.2-2.3c0,2-0.1,3.9-0.1,5.9c-1.3-0.4-2.9-0.3-4,0.5
	c-0.8,0.5-1.5,1.4-1.8,2.3c-0.3,0.7-0.2,1.4-0.2,2.1c0.3,2.2,2.4,4,4.7,3.8c1.5,0,2.9-0.9,3.7-2.1c0.3-0.4,0.5-0.9,0.5-1.4
	c0.1-2.4,0.1-4.8,0.1-7.1C14.6,10.7,14.6,5.4,14.6,0L14.6,0z"/>
</svg>
