<?xml version="1.0" encoding="utf-8"?>
<!-- Generator: Adobe Illustrator 26.0.1, SVG Export Plug-In . SVG Version: 6.00 Build 0)  -->
<svg version="1.1" id="Layer_1" xmlns="http://www.w3.org/2000/svg" xmlns:xlink="http://www.w3.org/1999/xlink" x="0px" y="0px"
	 viewBox="0 0 35.8 25" style="enable-background:new 0 0 35.8 25;" xml:space="preserve">
<path d="M23.7,7.1l-1,2c0.9,0.8,1.5,2,1.5,3.4c0,1.5-0.3,2.8-1.5,3.6l1,1.7c1.5-1.3,2.4-3.2,2.4-5.3C26.1,10.3,25.2,8.4,23.7,7.1z
	 M31,0l-1.4,1.7c2.6,2.8,4.2,6.6,4.2,10.8c0,4.1-1.6,7.9-4.2,10.8l1.4,1.7c3-3.3,4.8-7.6,4.8-12.5C35.8,7.6,34,3.3,31,0z M27.3,3.5
	l-1.2,1.8c1.8,1.9,3,4.4,3,7.2c0,2.9-1.2,5.5-3.1,7.3l1.3,1.7c2.3-2.4,3.7-5.5,3.7-9C31,9,29.6,5.8,27.3,3.5z M0,8.5v8.1
	c0,1,0.9,2.4,2,2.4h6V6H2C0.9,6,0,7.5,0,8.5z M17.3,0.1L9,5.9v13.2l8.4,5.8c1.1,0,2.7-0.8,2.7-1.9V2C20,0.9,18.4,0.1,17.3,0.1z"/>
</svg>
