<?xml version="1.0" encoding="utf-8"?>
<!-- Generator: Adobe Illustrator 26.0.1, SVG Export Plug-In . SVG Version: 6.00 Build 0)  -->
<svg version="1.1" id="Layer_1" xmlns="http://www.w3.org/2000/svg" xmlns:xlink="http://www.w3.org/1999/xlink" x="0px" y="0px"
	 viewBox="0 0 30.4 26" style="enable-background:new 0 0 30.4 26;" xml:space="preserve">
<path d="M29.6,22.2L17.1,0.8c-1-1-2.7-1-3.8,0L0.8,22.2c-1,1-1,2.7,0,3.8h28.8C30.6,25,30.6,23.3,29.6,22.2z M14,8.5
	C14,7.6,14.7,7,15.5,7C16.4,7,17,7.6,17,8.5v7c0,0.8-0.7,1.5-1.5,1.5c-0.8,0-1.5-0.7-1.5-1.5C14,15.5,14,8.5,14,8.5z M15.6,22
	c-0.8,0-1.5-0.7-1.5-1.5c0-0.8,0.7-1.5,1.5-1.5s1.5,0.7,1.5,1.5C17.1,21.3,16.4,22,15.6,22z"/>
</svg>
