<?xml version="1.0" encoding="utf-8"?>
<!-- Generator: Adobe Illustrator 26.0.1, SVG Export Plug-In . SVG Version: 6.00 Build 0)  -->
<svg version="1.1" id="Layer_1" xmlns="http://www.w3.org/2000/svg" xmlns:xlink="http://www.w3.org/1999/xlink" x="0px" y="0px"
	 viewBox="0 0 32 22.4" style="enable-background:new 0 0 32 22.4;" xml:space="preserve">
<style type="text/css">
	.st0{fill:#FF0000;}
</style>
<path class="st0" d="M31.3,3.5c-0.4-1.4-1.4-2.4-2.8-2.8l0,0C26,0,16,0,16,0S6,0,3.5,0.7C2.1,1.1,1.1,2.1,0.7,3.4l0,0
	C0.3,5.7,0,8.4,0,11c0,0.1,0,0.1,0,0.2v0c0,0,0,0.1,0,0.1c0,2.7,0.3,5.3,0.7,7.8l0-0.3c0.4,1.4,1.4,2.4,2.8,2.8l0,0
	C6,22.4,16,22.4,16,22.4s10,0,12.5-0.7c1.4-0.4,2.4-1.4,2.8-2.8l0,0c0.4-2.2,0.7-4.8,0.7-7.4c0-0.1,0-0.2,0-0.3v0c0-0.1,0-0.2,0-0.3
	c0-2.6-0.2-5.2-0.7-7.7L31.3,3.5L31.3,3.5z M12.8,16V6.4l8.4,4.8L12.8,16z"/>
</svg>
