<?xml version="1.0" encoding="utf-8"?>
<!-- Generator: Adobe Illustrator 26.0.3, SVG Export Plug-In . SVG Version: 6.00 Build 0)  -->
<svg version="1.1" id="Layer_1" xmlns="http://www.w3.org/2000/svg" xmlns:xlink="http://www.w3.org/1999/xlink" x="0px" y="0px"
	 viewBox="0 0 32.1 7.3" style="enable-background:new 0 0 32.1 7.3;" xml:space="preserve">
<style type="text/css">
	.st0{fill:#2D8CFF;}
</style>
<path class="st0" d="M6.1,5.8H5.7H2.5l4.3-4.3V1.1c0-0.6-0.5-1-1.1-1.1l0,0H5.4H0v0.4c0,0.6,0.5,1,1.1,1.1h0.4h3.2L0.4,5.8v0.4
	c0,0.6,0.5,1,1.1,1.1h0.4h5.4V6.9C7.1,6.2,6.7,5.8,6.1,5.8z M10.4,0L10.4,0c-2,0-3.6,1.6-3.6,3.6s1.6,3.6,3.6,3.6S14,5.6,14,3.6
	S12.4,0,10.4,0L10.4,0L10.4,0z M11.9,5.1c-0.4,0.4-0.9,0.7-1.6,0.7c-1.2,0-2.2-1-2.2-2.2C8.1,3,8.4,2.4,8.8,2l0,0
	c0.4-0.4,0.9-0.6,1.5-0.6c1.2,0,2.2,1,2.2,2.2C12.5,4.2,12.3,4.7,11.9,5.1L11.9,5.1L11.9,5.1z M29.1,0c-0.9,0-1.6,0.4-2.2,1l0,0
	c-0.5-0.6-1.3-1-2.2-1l0,0l0,0l0,0c-0.6,0-1.2,0.2-1.6,0.5l0,0C22.9,0.2,22.3,0,21.9,0v7.2h0.4c0.6,0,1-0.5,1.1-1.1V5.7V3.2V2.8
	c0-0.3,0.1-0.5,0.2-0.7c0.3-0.4,0.7-0.7,1.2-0.7c0.3,0,0.5,0.1,0.7,0.2l0,0c0.2,0.1,0.4,0.3,0.5,0.5l0,0c0.1,0.2,0.2,0.5,0.2,0.7
	v0.4v2.5v0.4c0,0.6,0.5,1,1.1,1.1h0.4v-4V2.8c0-0.3,0.1-0.5,0.2-0.7c0.4-0.7,1.3-0.9,2-0.5c0.2,0.1,0.4,0.3,0.5,0.5l0,0
	c0.1,0.2,0.2,0.5,0.2,0.7v0.4v2.5v0.4c0,0.6,0.5,1,1.1,1.1h0.4V2.9C32,1.3,30.7,0,29.1,0L29.1,0L29.1,0L29.1,0z M15.4,1.1
	c-0.7,0.7-1.1,1.6-1.1,2.6c0,2,1.6,3.6,3.6,3.6c1,0,1.9-0.4,2.6-1.1l0,0c0.6-0.6,1-1.5,1-2.5c0-2-1.6-3.6-3.6-3.6
	C16.9,0.1,16.1,0.4,15.4,1.1L15.4,1.1L15.4,1.1z M19.5,5.1c-0.4,0.4-0.9,0.7-1.5,0.7c-1.2,0-2.2-1-2.2-2.2c0-0.6,0.2-1.2,0.7-1.5
	l0,0c0.4-0.4,0.9-0.6,1.5-0.6c1.2,0,2.2,1,2.2,2.2C20.1,4.2,19.9,4.7,19.5,5.1L19.5,5.1L19.5,5.1z"/>
</svg>
