<?xml version="1.0" encoding="utf-8"?>
<!-- Generator: Adobe Illustrator 26.0.1, SVG Export Plug-In . SVG Version: 6.00 Build 0)  -->
<svg version="1.1" id="Layer_1" xmlns="http://www.w3.org/2000/svg" xmlns:xlink="http://www.w3.org/1999/xlink" x="0px" y="0px"
	 viewBox="0 0 32 32" style="enable-background:new 0 0 32 32;" xml:space="preserve">
<path d="M31,27.2l-7.6-6.4c-0.8-0.7-1.6-1-2.3-1C22.9,17.7,24,15,24,12c0-6.6-5.4-12-12-12S0,5.4,0,12s5.4,12,12,12
	c3,0,5.7-1.1,7.8-2.9c0,0.7,0.3,1.5,1,2.3l6.4,7.6c1.1,1.2,2.9,1.3,4,0.2S32.2,28.3,31,27.2z M12,20c-4.4,0-8-3.6-8-8s3.6-8,8-8
	s8,3.6,8,8S16.4,20,12,20z M14,6h-4v4H6v4h4v4h4v-4h4v-4h-4V6z"/>
</svg>
