<?xml version="1.0" encoding="utf-8"?>
<!-- Generator: Adobe Illustrator 26.0.1, SVG Export Plug-In . SVG Version: 6.00 Build 0)  -->
<svg version="1.1" id="Layer_1" xmlns="http://www.w3.org/2000/svg" xmlns:xlink="http://www.w3.org/1999/xlink" x="0px" y="0px"
	 viewBox="0 0 32 7.3" style="enable-background:new 0 0 32 7.3;" xml:space="preserve">
<style type="text/css">
	.st0{fill:#2D8CFF;}
</style>
<path class="st0" d="M6.1,5.8l-0.4,0H2.5l4.3-4.3l0-0.4c0-0.6-0.5-1-1.1-1.1h0L5.4,0H0l0,0.4c0,0.6,0.5,1,1.1,1.1l0.4,0h3.2L0.4,5.8
	l0,0.4c0,0.6,0.5,1,1.1,1.1l0.4,0h5.4l0-0.4C7.1,6.2,6.7,5.8,6.1,5.8z M10.4,0L10.4,0c-2,0-3.6,1.6-3.6,3.6s1.6,3.6,3.6,3.6
	S14,5.6,14,3.6S12.4,0,10.4,0L10.4,0L10.4,0z M11.9,5.1c-0.4,0.4-0.9,0.7-1.6,0.7c-1.2,0-2.2-1-2.2-2.2c0-0.6,0.3-1.2,0.7-1.6l0,0
	c0.4-0.4,0.9-0.6,1.5-0.6c1.2,0,2.2,1,2.2,2.2C12.5,4.2,12.3,4.7,11.9,5.1L11.9,5.1L11.9,5.1z M29.1,0c-0.9,0-1.6,0.4-2.2,1l0,0
	c-0.5-0.6-1.3-1-2.2-1c0,0,0,0,0,0l0,0c0,0,0,0,0,0c-0.6,0-1.2,0.2-1.6,0.5l0,0C22.9,0.2,22.3,0,21.9,0v7.2l0.4,0
	c0.6,0,1-0.5,1.1-1.1l0-0.4V3.2l0-0.4c0-0.3,0.1-0.5,0.2-0.7c0.3-0.4,0.7-0.7,1.2-0.7c0.3,0,0.5,0.1,0.7,0.2l0,0
	c0.2,0.1,0.4,0.3,0.5,0.5l0,0c0.1,0.2,0.2,0.5,0.2,0.7l0,0.4v2.5l0,0.4c0,0.6,0.5,1,1.1,1.1l0.4,0v-4l0-0.4c0-0.3,0.1-0.5,0.2-0.7
	c0.4-0.7,1.3-0.9,2-0.5c0.2,0.1,0.4,0.3,0.5,0.5l0,0c0.1,0.2,0.2,0.5,0.2,0.7l0,0.4v2.5l0,0.4c0,0.6,0.5,1,1.1,1.1l0.4,0V2.9
	C32,1.3,30.7,0,29.1,0C29.1,0,29.1,0,29.1,0L29.1,0L29.1,0z M15.4,1.1c-0.7,0.7-1.1,1.6-1.1,2.6c0,2,1.6,3.6,3.6,3.6
	c1,0,1.9-0.4,2.6-1.1l0,0c0.6-0.6,1-1.5,1-2.5c0-2-1.6-3.6-3.6-3.6C16.9,0.1,16.1,0.4,15.4,1.1L15.4,1.1L15.4,1.1z M19.5,5.1
	c-0.4,0.4-0.9,0.7-1.5,0.7c-1.2,0-2.2-1-2.2-2.2c0-0.6,0.2-1.2,0.7-1.5l0,0c0.4-0.4,0.9-0.6,1.5-0.6c1.2,0,2.2,1,2.2,2.2
	C20.1,4.2,19.9,4.7,19.5,5.1L19.5,5.1L19.5,5.1z"/>
</svg>
