<?xml version="1.0" encoding="utf-8"?>
<!-- Generator: Adobe Illustrator 26.0.1, SVG Export Plug-In . SVG Version: 6.00 Build 0)  -->
<svg version="1.1" id="Layer_1" xmlns="http://www.w3.org/2000/svg" xmlns:xlink="http://www.w3.org/1999/xlink" x="0px" y="0px"
	 viewBox="0 0 19.7 19.7" style="enable-background:new 0 0 19.7 19.7;" xml:space="preserve">
<path d="M12.9,14.3C11.6,15.4,9.9,16,8,16c-4.4,0-8-3.6-8-8s3.6-8,8-8s8,3.6,8,8c0,1.9-0.6,3.6-1.7,4.9l0,0l5.3,5.3l-1.4,1.4
	L12.9,14.3L12.9,14.3z M8,14c3.3,0,6-2.7,6-6s-2.7-6-6-6l0,0C4.7,2,2,4.7,2,8S4.7,14,8,14L8,14z M5,7h6v2H5V7z"/>
</svg>
